<svg width="71" height="71" viewBox="0 0 71 71" fill="none" xmlns="http://www.w3.org/2000/svg">
<g clip-path="url(#clip0_3783_38)">
<path d="M55.5194 35.1015H63.706V25.0447C63.706 23.9627 62.8239 23.0686 61.7298 23.0686H5.91791C4.83586 23.0686 3.94177 23.9507 3.94177 25.0447V65.0836C3.94177 66.1656 4.82386 67.0597 5.91791 67.0597H61.7298C62.8119 67.0597 63.706 66.1777 63.706 65.0836V55.0268H55.5194C50.0029 55.0268 45.5567 50.5924 45.5567 45.0641C45.5567 39.5358 49.9913 35.1015 55.5194 35.1015Z" fill="white"/>
<path d="M59.7539 35.1133H55.5194C49.9911 35.1133 45.5567 39.5478 45.5567 45.0761C45.5567 50.6044 49.9911 55.0388 55.5194 55.0388H59.7539V63.1313H7.8822V41.3238H11.4344C12.5164 41.3238 13.4105 40.4417 13.4105 39.3476C13.4105 38.2656 12.5166 37.3715 11.4344 37.3715H7.89403V33.4311H17.3626C18.4446 33.4311 19.3387 32.549 19.3387 31.4549C19.3387 30.3729 18.4566 29.4788 17.3626 29.4788H7.89403V27.0087H59.7657V35.1128H59.7539V35.1133Z" fill="#0061FF"/>
<path d="M49.4855 45.0642C49.4855 48.4164 52.1437 51.0747 55.4959 51.0747H67.0347V39.0536H55.6018C52.2496 39.0536 49.4855 41.712 49.4855 45.0642Z" fill="#F8AB39"/>
<path d="M49.403 19.1283L34.912 4.73132L20.3151 19.1283H49.403Z" fill="#0061FF"/>
<path d="M69.0227 35.1016H67.6465V25.0448C67.6465 21.7866 64.9882 19.1284 61.7301 19.1284H55.0257L36.2882 0.591012C35.5001 -0.197004 34.312 -0.197004 33.524 0.591012L14.7868 19.1284H5.91798C2.65984 19.1284 0.00158691 21.7866 0.00158691 25.0448V65.0836C0.00158691 68.3418 2.65984 71 5.91798 71H61.7299C64.988 71 67.6463 68.3418 67.6463 65.0836V55.0269H69.0225C70.1046 55.0269 70.9987 54.1448 70.9987 53.0507V37.0775C70.9987 35.9955 70.1166 35.1016 69.0227 35.1016ZM55.5195 55.0269H63.706V65.0836C63.706 66.1657 62.824 67.0598 61.7299 67.0598H5.91798C4.83594 67.0598 3.94185 66.1777 3.94185 65.0836V25.0448C3.94185 23.9627 4.82393 23.0687 5.91798 23.0687H61.7299C62.8119 23.0687 63.706 23.9507 63.706 25.0448V35.1016H55.5195C50.003 35.1016 45.5567 39.536 45.5567 45.0643C45.5569 50.5926 49.9914 55.0269 55.5195 55.0269ZM49.4031 19.1284H20.3151L34.9121 4.73141L49.4031 19.1284ZM67.0584 51.0866H65.6822H55.5195C52.1673 51.0866 49.509 48.4283 49.509 45.0761C49.509 41.7239 52.1673 39.0657 55.5195 39.0657H65.6822H67.0584V51.0866Z" fill="black"/>
<path d="M52.1671 45.0643C52.1671 46.1463 53.0492 47.0404 54.1432 47.0404H56.7074C57.7895 47.0404 58.6836 46.1583 58.6836 45.0643C58.6836 43.9822 57.8015 43.0881 56.7074 43.0881H54.1432C53.0494 43.1 52.1671 43.982 52.1671 45.0643Z" fill="black"/>
<path d="M21.5028 56.6971H13.4222C12.3401 56.6971 11.446 57.5792 11.446 58.6733C11.446 59.7553 12.3281 60.6494 13.4222 60.6494H21.5028C22.5849 60.6494 23.479 59.7673 23.479 58.6733C23.4671 57.5911 22.5849 56.6971 21.5028 56.6971Z" fill="black"/>
</g>
<defs>
<clipPath id="clip0_3783_38">
<rect width="71" height="71" fill="white"/>
</clipPath>
</defs>
</svg>
