<svg width="291" height="80" viewBox="0 0 291 80" fill="none" xmlns="http://www.w3.org/2000/svg">
<path d="M106.82 65L93.44 23H100.34L108.44 49.28C108.68 49.92 108.9 50.68 109.1 51.56C109.3 52.4 109.48 53.26 109.64 54.14C109.8 55.02 109.94 55.84 110.06 56.6C110.22 57.36 110.36 57.98 110.48 58.46L108.74 58.4C109.34 56.28 109.8 54.64 110.12 53.48C110.48 52.32 110.76 51.44 110.96 50.84C111.16 50.2 111.34 49.66 111.5 49.22L119.06 30.26H124.88L132.2 49.22C132.6 50.18 132.94 51.14 133.22 52.1C133.54 53.02 133.82 53.96 134.06 54.92C134.3 55.84 134.56 56.82 134.84 57.86L133.28 58.28C133.48 57.2 133.62 56.36 133.7 55.76C133.82 55.12 133.92 54.6 134 54.2C134.08 53.8 134.16 53.42 134.24 53.06C134.32 52.66 134.44 52.16 134.6 51.56C134.8 50.96 135.06 50.14 135.38 49.1L143.36 23H150.32L136.94 65H132.44L121.34 38.72L121.88 38.96L111.2 65H106.82ZM166.682 65.6C164.082 65.6 161.702 64.88 159.542 63.44C157.422 62 155.722 60.04 154.442 57.56C153.162 55.08 152.522 52.28 152.522 49.16C152.522 46 153.162 43.2 154.442 40.76C155.762 38.28 157.522 36.34 159.722 34.94C161.962 33.54 164.462 32.84 167.222 32.84C168.862 32.84 170.362 33.08 171.722 33.56C173.082 34.04 174.262 34.72 175.262 35.6C176.302 36.44 177.142 37.42 177.782 38.54C178.462 39.66 178.882 40.86 179.042 42.14L177.662 41.66V33.5H183.902V65H177.662V57.5L179.102 57.08C178.862 58.16 178.362 59.22 177.602 60.26C176.882 61.26 175.942 62.16 174.782 62.96C173.662 63.76 172.402 64.4 171.002 64.88C169.642 65.36 168.202 65.6 166.682 65.6ZM168.302 59.9C170.182 59.9 171.842 59.44 173.282 58.52C174.722 57.6 175.842 56.34 176.642 54.74C177.482 53.1 177.902 51.24 177.902 49.16C177.902 47.12 177.482 45.3 176.642 43.7C175.842 42.1 174.722 40.84 173.282 39.92C171.842 39 170.182 38.54 168.302 38.54C166.462 38.54 164.822 39 163.382 39.92C161.982 40.84 160.862 42.1 160.022 43.7C159.222 45.3 158.822 47.12 158.822 49.16C158.822 51.24 159.222 53.1 160.022 54.74C160.862 56.34 161.982 57.6 163.382 58.52C164.822 59.44 166.462 59.9 168.302 59.9ZM192.651 65V20.6H198.831V65H192.651ZM207.71 65V20.6H213.89V65H207.71ZM236.762 65.6C233.522 65.6 230.642 64.92 228.122 63.56C225.642 62.16 223.682 60.26 222.242 57.86C220.842 55.46 220.142 52.7 220.142 49.58C220.142 47.1 220.542 44.84 221.342 42.8C222.142 40.76 223.242 39 224.642 37.52C226.082 36 227.782 34.84 229.742 34.04C231.742 33.2 233.902 32.78 236.222 32.78C238.262 32.78 240.162 33.18 241.922 33.98C243.682 34.74 245.202 35.8 246.482 37.16C247.802 38.52 248.802 40.14 249.482 42.02C250.202 43.86 250.542 45.88 250.502 48.08L250.442 50.72H224.702L223.322 45.8H245.102L244.202 46.82V45.38C244.082 44.06 243.642 42.88 242.882 41.84C242.122 40.8 241.162 39.98 240.002 39.38C238.842 38.78 237.582 38.48 236.222 38.48C234.062 38.48 232.242 38.9 230.762 39.74C229.282 40.54 228.162 41.74 227.402 43.34C226.642 44.9 226.262 46.84 226.262 49.16C226.262 51.36 226.722 53.28 227.642 54.92C228.562 56.52 229.862 57.76 231.542 58.64C233.222 59.52 235.162 59.96 237.362 59.96C238.922 59.96 240.362 59.7 241.682 59.18C243.042 58.66 244.502 57.72 246.062 56.36L249.182 60.74C248.222 61.7 247.042 62.54 245.642 63.26C244.282 63.98 242.822 64.56 241.262 65C239.742 65.4 238.242 65.6 236.762 65.6ZM270.358 65.6C267.478 65.6 264.898 64.9 262.618 63.5C260.378 62.06 258.598 60.12 257.278 57.68C255.958 55.2 255.298 52.38 255.298 49.22C255.298 46.06 255.938 43.26 257.218 40.82C258.538 38.34 260.318 36.4 262.558 35C264.798 33.56 267.338 32.84 270.178 32.84C271.738 32.84 273.238 33.1 274.678 33.62C276.158 34.1 277.478 34.78 278.638 35.66C279.798 36.5 280.698 37.44 281.338 38.48C282.018 39.48 282.358 40.5 282.358 41.54L280.558 41.66V20.6H286.738V65H280.558V57.5H281.758C281.758 58.46 281.438 59.42 280.798 60.38C280.158 61.3 279.298 62.16 278.218 62.96C277.178 63.76 275.958 64.4 274.558 64.88C273.198 65.36 271.798 65.6 270.358 65.6ZM271.198 60.26C273.078 60.26 274.738 59.78 276.178 58.82C277.618 57.86 278.738 56.56 279.538 54.92C280.378 53.24 280.798 51.34 280.798 49.22C280.798 47.1 280.378 45.22 279.538 43.58C278.738 41.9 277.618 40.58 276.178 39.62C274.738 38.66 273.078 38.18 271.198 38.18C269.318 38.18 267.658 38.66 266.218 39.62C264.778 40.58 263.638 41.9 262.798 43.58C261.998 45.22 261.598 47.1 261.598 49.22C261.598 51.34 261.998 53.24 262.798 54.92C263.638 56.56 264.778 57.86 266.218 58.82C267.658 59.78 269.318 60.26 271.198 60.26Z" fill="black"/>
<g clip-path="url(#clip0_685_153)">
<path d="M55.5194 35.1015H63.706V25.0447C63.706 23.9627 62.8239 23.0686 61.7298 23.0686H5.91791C4.83586 23.0686 3.94177 23.9507 3.94177 25.0447V65.0836C3.94177 66.1656 4.82386 67.0597 5.91791 67.0597H61.7298C62.8119 67.0597 63.706 66.1777 63.706 65.0836V55.0268H55.5194C50.0029 55.0268 45.5567 50.5924 45.5567 45.0641C45.5567 39.5358 49.9913 35.1015 55.5194 35.1015Z" fill="white"/>
<path d="M59.7539 35.1133H55.5194C49.9911 35.1133 45.5567 39.5478 45.5567 45.0761C45.5567 50.6044 49.9911 55.0388 55.5194 55.0388H59.7539V63.1313H7.8822V41.3238H11.4344C12.5164 41.3238 13.4105 40.4417 13.4105 39.3476C13.4105 38.2656 12.5166 37.3715 11.4344 37.3715H7.89403V33.4311H17.3626C18.4446 33.4311 19.3387 32.549 19.3387 31.4549C19.3387 30.3729 18.4566 29.4788 17.3626 29.4788H7.89403V27.0087H59.7657V35.1128H59.7539V35.1133Z" fill="#0061FF"/>
<path d="M49.4855 45.0643C49.4855 48.4165 52.1437 51.0747 55.4959 51.0747H67.0347V39.0536H55.6018C52.2496 39.0536 49.4855 41.7121 49.4855 45.0643Z" fill="#F8AB39"/>
<path d="M49.403 19.1283L34.912 4.73135L20.3151 19.1283H49.403Z" fill="#0061FF"/>
<path d="M69.0227 35.1015H67.6465V25.0447C67.6465 21.7866 64.9882 19.1283 61.7301 19.1283H55.0257L36.2882 0.590951C35.5001 -0.197065 34.312 -0.197065 33.524 0.590951L14.7868 19.1283H5.91798C2.65984 19.1283 0.00158691 21.7866 0.00158691 25.0447V65.0836C0.00158691 68.3417 2.65984 71 5.91798 71H61.7299C64.988 71 67.6463 68.3417 67.6463 65.0836V55.0268H69.0225C70.1046 55.0268 70.9987 54.1447 70.9987 53.0507V37.0775C70.9987 35.9954 70.1166 35.1015 69.0227 35.1015ZM55.5195 55.0268H63.706V65.0836C63.706 66.1656 62.824 67.0597 61.7299 67.0597H5.91798C4.83594 67.0597 3.94185 66.1776 3.94185 65.0836V25.0447C3.94185 23.9627 4.82393 23.0686 5.91798 23.0686H61.7299C62.8119 23.0686 63.706 23.9507 63.706 25.0447V35.1015H55.5195C50.003 35.1015 45.5567 39.5359 45.5567 45.0642C45.5569 50.5925 49.9914 55.0268 55.5195 55.0268ZM49.4031 19.1283H20.3151L34.9121 4.73135L49.4031 19.1283ZM67.0584 51.0865H65.6822H55.5195C52.1673 51.0865 49.509 48.4283 49.509 45.0761C49.509 41.7239 52.1673 39.0656 55.5195 39.0656H65.6822H67.0584V51.0865Z" fill="black"/>
<path d="M52.1671 45.0643C52.1671 46.1463 53.0492 47.0404 54.1432 47.0404H56.7074C57.7895 47.0404 58.6836 46.1583 58.6836 45.0643C58.6836 43.9822 57.8015 43.0881 56.7074 43.0881H54.1432C53.0494 43.1 52.1671 43.982 52.1671 45.0643Z" fill="black"/>
<path d="M21.5028 56.6971H13.4222C12.3401 56.6971 11.446 57.5792 11.446 58.6732C11.446 59.7553 12.3281 60.6494 13.4222 60.6494H21.5028C22.5849 60.6494 23.479 59.7673 23.479 58.6732C23.4671 57.591 22.5849 56.6971 21.5028 56.6971Z" fill="black"/>
</g>
<defs>
<clipPath id="clip0_685_153">
<rect width="71" height="71" fill="white"/>
</clipPath>
</defs>
</svg>
