<svg width="82" height="77" viewBox="0 0 82 77" fill="none" xmlns="http://www.w3.org/2000/svg">
<path d="M29.939 73.4913C28.487 75.1201 25.6683 76.0159 24.226 74.3787C23.5704 73.6343 23.409 72.5809 23.3801 71.5894C23.3016 68.9089 24.0018 66.2101 25.3738 63.9061C23.9257 62.588 22.4777 61.2699 21.0297 59.9516C18.7071 62.5182 15.5871 64.3526 12.2151 65.1343C11.0028 65.4153 9.71695 65.5603 8.52509 65.2022C7.33323 64.8441 6.25744 63.8882 6.06303 62.6589C5.71863 60.4807 8.01351 58.8991 9.98316 57.9073C11.9212 56.9314 13.8592 55.9554 15.7972 54.9795C14.5557 52.6465 13.4728 50.2291 12.5581 47.7496C9.279 49.5992 5.23808 50.0457 1.63421 48.9565C1.06072 48.7832 0.4498 48.5326 0.1664 48.0047C-0.0730367 47.5587 -0.0202509 47.0123 0.113463 46.524C0.717227 44.322 2.79001 42.7698 4.98617 42.1456C7.18248 41.5215 9.51372 41.6651 11.792 41.8139C10.658 41.6065 10.6018 40.0074 10.8582 38.8833C11.6866 35.2491 12.7592 31.6708 14.0664 28.1803C13.6596 29.2667 8.51171 25.8694 8.1092 25.6467C7.15708 25.1199 6.18229 24.575 5.48148 23.7426C3.43774 21.3155 6.1397 18.3329 8.62245 17.6219C11.5153 16.7935 14.0445 20.5708 16.9323 20.5791C17.6278 20.5811 20.7265 16.8814 21.4983 16.2935C23.3626 14.8733 25.3627 13.8067 27.4409 12.7475C29.5776 11.6585 29.2633 10.9721 29.0701 8.73993C28.8147 5.78728 29.5647 0.0191901 33.7116 2.29363e-05C34.8787 -0.00530127 35.8358 0.917158 36.5033 1.87445C38.061 4.10833 38.7973 6.90186 38.5429 9.61325C43.0941 9.71532 47.6318 10.3944 52.0135 11.6288C53.4687 9.39678 54.3099 6.7397 56.1654 4.8274C58.021 2.91525 61.5432 2.16302 63.1937 4.25467C64.5264 5.9435 63.8989 8.40405 63.1029 10.4028C62.1486 12.7985 61.0375 15.1319 59.7789 17.3826C62.6639 19.2116 65.0576 21.8073 66.6473 24.8306C69.7266 22.7155 73.3891 21.4587 77.1183 21.2374C77.8762 21.1923 78.6899 21.2042 79.3196 21.628C80.2273 22.2389 80.4394 23.5531 80.0629 24.5803C79.6864 25.6076 78.8546 26.3965 77.9963 27.0751C75.7491 28.8522 73.1233 30.1484 70.3459 30.8519C71.5303 34.0163 71.9254 37.4727 71.4855 40.8227C75.8501 40.4627 80.2445 43.5937 81.3299 47.8366C81.4396 48.2657 81.5166 48.7312 81.3513 49.1421C81.0425 49.9097 80.0758 50.1309 79.2513 50.2013C76.2418 50.4583 73.1828 50.1231 70.3004 49.2205C68.0735 52.1358 65.6027 54.8647 62.922 57.3692C65.7916 57.4051 68.585 59.0771 69.9723 61.5893C70.7223 62.9473 71.0466 64.7012 70.2251 66.0172C69.5538 67.0927 68.2652 67.635 67.0098 67.8117C63.5299 68.301 59.8492 66.2014 58.4993 62.957C56.3065 63.7557 54.1135 64.5543 51.9207 65.3529C51.5087 65.5029 51.0534 65.6926 50.884 66.0971C50.731 66.4623 50.8657 66.8779 51.0005 67.2502C51.5737 68.8342 52.1481 70.4596 52.1467 72.1442C52.1454 73.8286 51.4564 75.6116 50.0123 76.4791C47.9427 77.7224 45.1081 76.5914 43.6673 74.6542C42.2264 72.7169 41.8254 70.222 41.4676 67.8343C41.6112 68.793 33.4824 67.4644 32.6567 66.8111C31.6826 68.9168 31.5711 71.6597 29.939 73.4913Z" fill="#E8770A"/>
<path d="M65.1051 41.5506C64.564 49.8655 58.8849 56.6572 51.1382 59.9917C44.2257 62.9681 33.5711 63.4217 27.128 58.9491C22.587 55.7976 19.2828 51.4301 17.6082 46.3351C16.3634 42.5485 16.2426 38.4197 17.196 34.5599C17.7993 32.1199 18.8085 29.793 20.1406 27.6426C22.0523 24.5547 24.6228 21.8298 27.5911 19.6493C34.0119 14.9316 42.9986 12.7541 50.3169 16.0378C53.2775 17.3684 55.7954 19.4949 57.9091 21.8967C60.7295 25.0991 62.8878 28.8921 64.088 32.9237C64.9221 35.7235 65.293 38.638 65.1051 41.5506Z" fill="#FDCC13"/>
<path d="M50.8279 25.7324C48.0567 26.7885 45.9112 29.4853 46.476 32.6795C46.9762 35.4966 49.9555 37.8451 53.1724 37.8157C58.7603 37.7647 61.2297 31.8272 58.532 28.0009C56.5503 25.1905 53.4162 24.7457 50.8279 25.7324Z" fill="white"/>
<path d="M27.8286 28.7173C25.3641 29.6567 23.4559 32.055 23.9582 34.896C24.403 37.4014 27.0528 39.49 29.9137 39.464C34.8834 39.4186 37.0796 34.1381 34.6804 30.735C32.9181 28.2355 30.1306 27.84 27.8286 28.7173Z" fill="white"/>
<path d="M56.3774 32.0145C55.7031 30.6398 53.9989 29.781 52.1987 30.2148C50.9936 30.5052 49.9511 31.4024 49.4842 32.5508C49.0954 33.5073 49.3879 34.7107 49.9858 35.5142C50.6338 36.3849 52.154 36.728 53.197 36.7517C54.315 36.777 55.4283 36.1965 56.0476 35.2653C56.8186 34.1059 56.8327 32.9426 56.3774 32.0145Z" fill="#1D1D1B"/>
<path d="M54.2569 34.5525C55.668 34.4406 56.1526 32.2633 55.2344 31.3698C54.0129 30.1813 52.565 32.2349 52.8668 33.3969C53.0314 34.0307 53.6042 34.6042 54.2569 34.5525Z" fill="white"/>
<path d="M32.5022 33.7621C31.8277 32.3874 30.1236 31.5285 28.3234 31.9623C27.1183 32.2527 26.0759 33.1499 25.609 34.2983C25.2202 35.2548 25.5127 36.4582 26.1105 37.2617C26.7586 38.1325 28.2787 38.4755 29.3218 38.4992C30.4397 38.5245 31.5531 37.944 32.1724 37.0129C32.9435 35.8536 32.9575 34.6903 32.5022 33.7621Z" fill="#1D1D1B"/>
<path d="M30.3817 36.3001C31.7926 36.1883 32.2774 34.011 31.3592 33.1175C30.1377 31.929 28.6898 33.9826 28.9916 35.1446C29.1562 35.7784 29.7291 36.3519 30.3817 36.3001Z" fill="white"/>
<path d="M47.3073 41.2815C47.0737 44.0673 45.1687 46.7895 42.4534 47.4547C41.6012 47.6634 40.7124 47.6708 39.8366 47.6167C36.8047 47.4288 35.0826 44.5256 34.1399 42.0118C35.4525 42.2096 36.7456 42.1504 38.0696 42.2158C41.1724 42.3693 44.2985 42.0556 47.3073 41.2815Z" fill="#E8770A"/>
<path d="M65.1051 41.5506C64.564 49.8655 58.8849 56.6572 51.1382 59.9917C44.2257 62.9681 33.5711 63.4217 27.128 58.949C22.587 55.7976 19.2828 51.43 17.6082 46.3351C16.3634 42.5485 16.2426 38.4197 17.196 34.5599C17.7993 32.1199 18.8085 29.7929 20.1406 27.6426C18.0921 33.0431 17.4762 39.0215 19.913 44.1529C22.1715 48.9088 26.7508 52.2307 31.6562 54.1422C36.5872 56.0633 42.0705 56.7366 47.2371 55.5858C52.402 54.435 57.2074 51.3759 60.05 46.9128C61.5732 44.5221 62.5107 41.8036 63.1936 39.0533C63.6839 37.0748 64.0292 34.9866 64.088 32.9237C64.9221 35.7235 65.293 38.638 65.1051 41.5506Z" fill="#F6A71C"/>
<path d="M32.2554 19.8839C31.7119 19.5755 31.0336 19.7735 30.7052 20.3063C30.3097 20.948 30.6048 21.688 31.0254 22.235C31.477 22.8227 32.1515 23.2701 32.9249 23.1052C33.6519 22.9503 34.1574 22.3554 34.3939 21.676C34.8798 20.2805 33.8795 18.4567 32.3227 18.4436C30.6547 18.4296 29.6679 20.3783 30.1397 21.8389C30.4657 22.8478 31.4525 23.506 32.5113 23.2603C33.4549 23.0414 34.3214 21.9804 33.9494 20.9865C33.408 19.5401 31.5018 19.8372 31.3324 21.3406C31.408 20.6696 32.046 20.4778 32.5592 20.8932C32.727 21.029 32.5327 21.0309 32.5992 20.9083C32.6149 21.0283 32.6211 21.0403 32.6181 20.9445C32.622 20.8489 32.617 20.8608 32.6033 20.9801C32.6156 20.9052 32.6506 20.7216 32.6693 20.7399C32.6911 20.761 32.6058 20.8252 32.5843 20.8287C32.5592 20.8327 32.1339 20.8871 32.1635 20.8124C32.1712 20.7933 32.4298 21.01 32.3427 20.9306C32.2688 20.8629 32.3992 21.0494 32.4015 21.0902C32.3949 20.9694 32.3703 21.3807 32.3076 21.3146C32.3234 21.3312 32.4848 21.178 32.4935 21.2374C32.4898 21.2128 32.3468 21.1477 32.3017 21.1118C32.2235 21.0496 32.1311 20.9004 32.0479 20.8508C32.0385 20.8282 32.0289 20.8057 32.0195 20.7831C32.0155 20.9051 31.9446 20.9598 31.8068 20.9475C32.4361 21.1015 32.8431 20.2172 32.2554 19.8839Z" fill="#FFDC6F"/>
<path d="M27.3593 23.0724C27.0796 23.1124 26.8712 23.366 26.7854 23.619C26.6878 23.906 26.7527 24.2544 26.9633 24.4752C27.4728 25.0093 28.2104 24.5201 28.5971 24.0975C28.8499 23.8211 28.9083 23.3278 28.5971 23.059C28.3776 22.8695 28.1296 22.7607 27.8364 22.7674C27.5446 22.7739 27.2566 22.9054 27.0514 23.1107C26.6261 23.5364 26.7803 24.2595 27.3251 24.4894C27.5729 24.5939 27.8461 24.5846 28.082 24.4465C28.2098 24.3709 28.3116 24.2691 28.3872 24.1413C28.4642 24.0087 28.5028 23.8655 28.5032 23.7121C28.5043 23.7032 28.5055 23.6942 28.5066 23.6854C28.4966 23.76 28.4865 23.8345 28.4766 23.9089C28.48 23.8908 28.4853 23.8733 28.4926 23.8564C28.4651 23.9218 28.4374 23.9872 28.4097 24.0526C28.414 24.0443 28.4184 24.0358 28.4226 24.0274C28.3803 24.0822 28.3379 24.1371 28.2956 24.1918C28.3148 24.1684 28.3332 24.1498 28.3566 24.1305C28.3031 24.1719 28.2494 24.2133 28.1958 24.2548C28.2208 24.2378 28.2437 24.2247 28.2714 24.2125C28.2097 24.2387 28.1477 24.2647 28.086 24.2907C28.1144 24.2811 28.1397 24.2749 28.1695 24.2709C28.1023 24.2799 28.035 24.289 27.9679 24.298C27.987 24.2963 28.006 24.2966 28.025 24.2991C27.9588 24.2903 27.8926 24.2813 27.8266 24.2725C27.8459 24.2749 27.8646 24.2796 27.8829 24.2865C27.7119 23.9854 27.5409 23.6842 27.37 23.3832C27.3663 23.394 27.3625 23.4046 27.3588 23.4154C27.3833 23.3575 27.4077 23.2996 27.4322 23.2417C27.4199 23.2686 27.4063 23.2942 27.3906 23.3193C27.3763 23.3424 27.3236 23.4119 27.3964 23.3196C27.4742 23.221 27.4045 23.3082 27.3849 23.3296C27.3651 23.3512 27.3442 23.3719 27.3226 23.3918C27.3041 23.409 27.2355 23.4633 27.3249 23.3946C27.4198 23.3216 27.3316 23.3873 27.3079 23.402C27.2583 23.4331 27.2061 23.4588 27.1523 23.4816C27.3222 23.4594 27.4921 23.4372 27.662 23.415C27.6625 23.4151 27.8211 23.4947 27.7538 23.451C27.6721 23.3981 27.8587 23.5487 27.8169 23.5053C27.7708 23.4574 27.9085 23.6308 27.8697 23.5758C27.8395 23.5332 27.8496 23.4791 27.8949 23.6418C27.8747 23.5691 27.9015 23.72 27.9018 23.7224C27.8998 23.7079 27.8996 23.6903 27.9016 23.6758C27.8978 23.7084 27.8939 23.7408 27.8899 23.7733C27.9015 23.7379 27.8981 23.7444 27.8803 23.793C27.8735 23.8214 27.8598 23.8461 27.8391 23.8666C27.8076 23.9036 27.805 23.909 27.8312 23.883C27.9822 23.7428 28.0197 23.4702 27.9071 23.2954C27.7798 23.0979 27.5829 23.0404 27.3593 23.0724Z" fill="#FFDC6F"/>
<path d="M24.5415 16.6465C24.8139 14.8165 22.7662 13.2016 21.6615 11.9884C20.2308 10.4173 17.7536 12.9147 19.3402 14.3097C20.5661 15.3877 22.2349 17.441 24.0568 17.1311C24.2676 17.0952 24.5097 16.8602 24.5415 16.6465Z" fill="#E8770A"/>
<path d="M14.8337 34.2384C14.1189 33.2431 12.3946 33.1045 11.2691 32.8456C9.87325 32.5245 8.42339 32.0228 6.99133 32.3316C5.99327 32.5468 5.88177 33.974 6.71326 34.4588C7.92368 35.1648 9.42693 35.1274 10.7902 35.2491C11.4485 35.308 12.1021 35.367 12.7625 35.3902C13.3901 35.4123 14.0708 35.5063 14.6034 35.1163C14.8625 34.9266 15.0525 34.5429 14.8337 34.2384Z" fill="#E8770A"/>
<path d="M44.8588 11.9169C45.1703 11.1353 45.1638 10.2458 45.4393 9.44186C45.7157 8.63487 46.0785 7.78923 46.2399 6.95455C46.3721 6.27061 46.1057 5.57254 45.4277 5.29978C44.836 5.06172 43.9692 5.22905 43.6762 5.87373C43.2282 6.85902 43.0566 8.05042 43.1359 9.13017C43.2071 10.1002 43.1923 11.1985 43.6578 12.0738C43.9491 12.6213 44.6651 12.4029 44.8588 11.9169Z" fill="#E8770A"/>
<path d="M62.9036 22.1631C63.8203 21.8951 64.3618 21.2142 65.0482 20.5781C65.7102 19.9644 66.4206 19.4283 67.1803 18.9417C68.8984 17.8411 67.0699 15.3526 65.4443 16.6918C64.6629 17.3358 63.9362 18.0378 63.2796 18.8094C62.6096 19.5967 61.9378 20.3727 61.9592 21.4436C61.9687 21.9201 62.4293 22.3017 62.9036 22.1631Z" fill="#E8770A"/>
<path d="M69.7199 36.4755C70.2883 37.1699 71.4896 36.7638 72.2463 36.7003C73.2496 36.6162 74.2471 36.5773 75.2532 36.6262C77.0963 36.716 77.0589 33.6246 75.2532 33.791C74.4055 33.8694 68.2435 34.672 69.7199 36.4755Z" fill="#E8770A"/>
<path d="M66.164 52.8363C67.2904 54.3807 69.1948 55.4268 70.9014 56.198C71.5656 56.4982 72.354 56.389 72.7491 55.7135C73.0977 55.1174 72.9211 54.1902 72.2646 53.8659C71.4075 53.4425 70.5537 53.0231 69.6796 52.6355C68.8828 52.2822 67.8861 51.8512 67.0318 51.7073C66.4518 51.6098 65.7259 52.2358 66.164 52.8363Z" fill="#E8770A"/>
<path d="M53.4874 63.2883C53.638 64.9937 54.5461 66.7522 55.399 68.2112C56.2138 69.6051 58.4503 68.2731 57.5508 66.9535C57.1022 66.2953 56.6709 65.6235 56.2847 64.9265C55.9038 64.2391 55.6189 63.4826 55.1836 62.8289C54.7265 62.1425 53.4019 62.3211 53.4874 63.2883Z" fill="#E8770A"/>
<path d="M36.3571 66.0744C36.1544 66.7212 36.1391 67.4322 36.0177 68.1003C35.894 68.7811 35.7436 69.4579 35.5773 70.1295C35.1996 71.6555 37.6516 72.2668 37.8939 70.7681C38.1319 69.2969 38.4393 67.5422 38.0693 66.0744C37.8482 65.1967 36.611 65.2641 36.3571 66.0744Z" fill="#E8770A"/>
<path d="M23.6552 61.1106C22.8068 61.7503 22.1125 62.6087 21.4121 63.4031C20.5037 64.4337 22.1343 65.7153 22.912 64.5604C23.5041 63.6811 24.1584 62.7922 24.5632 61.8087C24.7614 61.3274 24.0717 60.7967 23.6552 61.1106Z" fill="#E8770A"/>
<path d="M14.7378 50.2171C13.3688 50.4897 12.0137 51.3151 10.8054 51.9871C9.74198 52.5787 10.7525 54.2851 11.7544 53.6106C12.9262 52.8217 14.2677 52.17 15.3403 51.252C15.8478 50.8176 15.2913 50.1068 14.7378 50.2171Z" fill="#E8770A"/>
</svg>
